<?xml version="1.0" encoding="UTF-8" standalone="no"?>
<!DOCTYPE svg PUBLIC "-//W3C//DTD SVG 1.1//EN" "http://www.w3.org/Graphics/SVG/1.1/DTD/svg11.dtd">
<!-- Copyright (C) 2016 IBM Corporation. All Rights Reserved. -->
<!--Generated by Intaglio, www.PurgatoryDesign.com-->
<svg version="1.1" viewBox="62,67,333,284" width="333" height="284" xmlns="http://www.w3.org/2000/svg" xmlns:xlink="http://www.w3.org/1999/xlink"><path fill-rule="evenodd" d="M345.444,67.3701 C410.257,132.183,410.257,237.266,345.444,302.079 C280.631,366.892,175.548,366.892,110.735,302.079 C45.9222,237.266,45.9222,132.183,110.735,67.3701 L127.948,84.583 C101.829,111.318,86.4685,146.228,86.4685,184.724 L86.4685,184.724 C87.4601,263.927,150.486,326.346,228.091,326.346 C307.293,325.355,369.713,262.329,369.713,184.724 C369.243,146.041,354.377,110.727,328.232,84.5825 C327.4,83.7552,327.817,84.1672,328.232,84.582 L345.444,67.3701 Z"/><path fill-rule="evenodd" d="M311.603,268.205 C265.585,313.97,190.89,313.695,144.768,267.591 C98.6457,221.486,98.5611,147.01,144.579,101.244 C190.597,55.4784,265.291,55.7534,311.414,101.858 L295.621,117.564 L295.438,117.377 C276.061,98.8976,252.561,89.4803,228.091,89.4803 C174.825,90.1472,132.846,132.533,132.846,184.724 L132.846,184.724 C133.513,237.99,175.9,279.968,228.091,279.968 C255.14,279.634,278.484,269.033,295.451,252.059 Z"/><path fill-rule="evenodd" d="M215.618,118.693 L240.563,118.693 L240.563,250.756 L215.618,250.756"/></svg>
